<svg xmlns="http://www.w3.org/2000/svg" viewBox="0 0 1163.22 485.33"><defs><style>.cls-1{fill:#fff;}</style></defs><title>Logo_White</title><g id="Logomark"><path class="cls-1" d="M100.18,299.56s12.13-46.6,25.71-76.74c0,0,21.6-7.89,37.87-7.58,0,0,37.69-82.77,85.93-122-.47,1.69,19.5,54.84,9.61,148.72,0,0,20.4,14.8,27.55,25a509.38,509.38,0,0,1-16.76,78.32c-.39,1.71-11.29-19.21-22.68-34.82l-4.95,17.7a105.61,105.61,0,0,0-31.74-34.93s10.61-36.72-.1-61.84c0,0-15.62,8.66-32.13,52.52a150.47,150.47,0,0,0-45.69,13.88l6-18.31A200.37,200.37,0,0,0,100.18,299.56Z"/><path class="cls-1" d="M137.42,358.31s13.52-12.58,20.85-13.86c0,0-10.35,35.89,7.11,47.13,0,0,16.15,7.25,31.38-36.36,0,0,7.42,8.13,10,22.78,0,0,23.4-50.1-18.2-68.71C188.55,309.29,150.24,299.48,137.42,358.31Z"/></g><g id="Title"><path class="cls-1" d="M408,240.17c8.47-11.82,20.49-13.79,27.78-13.79,25.22,0,42,19.5,42,45.31,0,26-17.33,45.51-42.55,45.51A32.26,32.26,0,0,1,408,303.41v11H384V170.82h24Zm-2.36,31.52c0,13.59,9.85,24.23,23.64,24.23s23.64-10.64,23.64-24.23-9.85-24-23.64-24S405.64,258.1,405.64,271.69Z"/><path class="cls-1" d="M580,290.6c-2.56,6.31-12.21,26.6-42,26.6-13.79,0-24.23-3.94-32.7-12-9.46-8.87-13.4-19.9-13.4-33.29,0-16.95,6.9-27.39,13-33.49,10.05-9.86,21.87-12,32.12-12,17.33,0,27.38,6.89,33.29,14,9.06,10.83,10.24,24.23,10.24,33.49v2H516.74c0,5.12,1.38,10.63,4.14,14.38,2.56,3.54,7.88,8.08,17.14,8.08,9.06,0,16-4.34,19.9-11.23Zm-22.06-30.14c-2-11.62-11.43-17.14-20.29-17.14a20.08,20.08,0,0,0-20.1,17.14Z"/><path class="cls-1" d="M666.46,229.14h24v85.3h-24v-11c-8.67,12.41-20.09,13.79-26.2,13.79-26.2,0-43.54-20.49-43.54-45.51,0-25.22,17.14-45.31,42.36-45.31,6.5,0,19.3,1.18,27.38,13.79Zm-44.92,42.55c0,13.59,9.86,24.23,23.65,24.23s23.64-10.64,23.64-24.23-9.85-24-23.64-24S621.54,258.1,621.54,271.69Z"/><path class="cls-1" d="M713.34,229.14h24v9.65a31.37,31.37,0,0,1,25.41-12.41c17.93,0,24.83,11.23,27,15.56,4.14-6.7,12.61-15.56,27.39-15.56,13.2,0,19.7,6.1,23.05,10.44,5.51,7.29,5.91,14.58,5.91,24v53.59h-24V268c0-10.05-2.17-14.58-3.94-16.75a12.07,12.07,0,0,0-9.85-4.33c-6.5,0-10.64,2.95-13.2,7.48-3.15,5.12-3.35,12-3.35,16.55v43.54h-24V268c0-10.05-2.17-14.58-3.94-16.75a12.08,12.08,0,0,0-9.85-4.33c-6.5,0-10.64,2.95-13.2,7.48-3.15,5.12-3.35,12-3.35,16.55v43.54h-24Z"/><path class="cls-1" d="M952.7,290.6c-2.56,6.31-12.21,26.6-42,26.6-13.79,0-24.23-3.94-32.7-12-9.46-8.87-13.4-19.9-13.4-33.29,0-16.95,6.89-27.39,13-33.49,10.05-9.86,21.87-12,32.11-12,17.34,0,27.39,6.89,33.3,14,9.06,10.83,10.24,24.23,10.24,33.49v2H889.46c0,5.12,1.38,10.63,4.14,14.38,2.56,3.54,7.88,8.08,17.14,8.08,9.06,0,16-4.34,19.9-11.23Zm-22.06-30.14c-2-11.62-11.43-17.14-20.3-17.14a20.07,20.07,0,0,0-20.09,17.14Z"/><path class="cls-1" d="M1037.21,170.82h24V314.44h-24v-11c-8.67,12.41-20.09,13.79-26.2,13.79-26.2,0-43.54-20.49-43.54-45.51,0-25.22,17.14-45.31,42.36-45.31,6.5,0,19.3,1.18,27.38,13.79ZM992.29,271.69c0,13.59,9.85,24.23,23.64,24.23s23.65-10.64,23.65-24.23-9.85-24-23.65-24S992.29,258.1,992.29,271.69Z"/></g></svg>